<?xml version="1.0" standalone="no"?>
<!DOCTYPE svg PUBLIC "-//W3C//DTD SVG 20010904//EN"
 "http://www.w3.org/TR/2001/REC-SVG-20010904/DTD/svg10.dtd">
<svg version="1.0" xmlns="http://www.w3.org/2000/svg"
 width="700.000000pt" height="700.000000pt" viewBox="0 0 700.000000 700.000000"
 preserveAspectRatio="xMidYMid meet">
<metadata>
Created by potrace 1.11, written by Peter Selinger 2001-2013
</metadata>
<g transform="translate(0.000000,700.000000) scale(0.100000,-0.100000)"
fill="#000000" stroke="none">
<path d="M415 6938 c3 -35 8 -79 10 -98 2 -19 7 -71 10 -115 3 -44 8 -93 10
-110 2 -16 7 -70 10 -120 4 -49 8 -103 10 -120 2 -16 7 -61 10 -100 3 -38 7
-90 10 -115 2 -25 7 -79 10 -120 3 -41 8 -86 10 -100 2 -14 6 -63 10 -110 4
-47 8 -101 10 -120 2 -19 6 -71 10 -115 3 -44 8 -98 11 -120 2 -22 6 -67 9
-100 2 -33 7 -80 10 -105 2 -25 7 -76 10 -115 3 -38 7 -90 10 -115 2 -25 7
-76 10 -115 3 -38 8 -88 10 -110 4 -37 8 -83 20 -230 3 -33 7 -85 11 -115 3
-30 7 -77 10 -105 11 -147 14 -181 18 -228 3 -29 8 -78 11 -109 3 -32 7 -83
10 -113 7 -72 13 -144 20 -230 4 -38 8 -90 11 -115 2 -25 6 -74 9 -110 3 -36
8 -81 10 -100 2 -19 7 -78 11 -130 3 -52 8 -103 10 -113 1 -9 6 -56 9 -105 4
-48 8 -98 10 -112 2 -14 7 -56 10 -95 3 -38 8 -92 10 -120 2 -27 7 -84 10
-125 3 -41 7 -91 10 -110 3 -19 8 -71 11 -115 4 -44 8 -93 10 -110 1 -16 5
-68 9 -115 3 -47 8 -92 10 -100 2 -8 7 -55 10 -105 4 -49 8 -103 10 -120 1
-16 5 -61 9 -100 4 -38 8 -90 10 -115 7 -83 18 -205 21 -240 2 -19 7 -71 10
-115 4 -44 9 -93 11 -110 1 -16 5 -66 9 -110 3 -44 8 -96 10 -115 3 -19 7 -64
10 -99 3 -36 7 -66 9 -69 4 -4 135 -41 606 -173 114 -32 794 -224 1105 -312
165 -47 413 -117 550 -156 l251 -71 264 74 c146 40 274 76 285 79 11 3 61 18
110 32 50 15 113 33 140 40 28 7 100 27 160 45 61 17 115 32 120 34 72 20 129
35 290 81 105 29 314 88 465 130 151 43 329 93 395 112 66 19 127 36 135 38 8
1 50 13 93 26 l77 22 1 46 c0 25 2 53 3 61 2 8 6 57 10 107 4 51 9 103 11 115
2 13 6 63 10 111 3 48 8 96 10 105 1 9 6 58 10 107 4 50 8 106 10 125 2 19 6
67 9 105 3 39 8 90 11 115 3 25 7 77 10 115 6 73 22 254 30 340 3 28 7 77 10
110 3 33 7 83 10 110 9 86 16 168 20 220 2 28 6 82 10 120 3 39 8 93 11 120 2
28 6 70 9 95 3 25 7 77 10 115 3 39 7 95 10 125 3 30 8 82 11 115 2 33 7 80 9
105 3 25 7 77 10 115 3 39 8 86 10 105 1 19 6 71 10 115 4 44 9 94 10 110 2
17 6 68 10 114 3 47 8 97 10 113 2 16 6 63 10 106 3 42 8 95 10 117 2 22 7 68
10 102 3 35 7 91 10 125 3 35 8 81 10 103 2 22 7 69 9 105 12 148 18 206 21
230 2 14 7 70 10 125 4 55 8 107 10 115 2 9 6 54 10 101 4 46 8 98 10 114 2
17 6 64 9 105 4 41 9 95 11 120 2 25 6 72 9 105 3 33 8 87 11 120 3 33 8 83
10 110 12 142 16 184 20 230 11 124 25 271 30 330 2 28 7 79 10 115 9 103 13
150 19 230 4 41 9 85 11 98 l5 22 -3086 0 -3086 0 7 -62z"/>
</g>
</svg>
