<?xml version="1.0" standalone="no"?>
<!DOCTYPE svg PUBLIC "-//W3C//DTD SVG 20010904//EN"
 "http://www.w3.org/TR/2001/REC-SVG-20010904/DTD/svg10.dtd">
<svg version="1.0" xmlns="http://www.w3.org/2000/svg"
 width="600.000000pt" height="600.000000pt" viewBox="0 0 600.000000 600.000000"
 preserveAspectRatio="xMidYMid meet">
<metadata>
Created by potrace 1.11, written by Peter Selinger 2001-2013
</metadata>
<g transform="translate(0.000000,600.000000) scale(0.100000,-0.100000)"
fill="#000000" stroke="none">
<path d="M0 3000 l0 -3000 3000 0 3000 0 0 3000 0 3000 -3000 0 -3000 0 0
-3000z m2699 410 c4 0 43 10 87 21 105 29 307 31 404 5 193 -53 312 -180 366
-391 15 -61 18 -134 21 -587 l4 -518 -130 0 -130 0 -4 488 c-3 413 -6 496 -20
550 -31 116 -70 169 -157 212 -81 41 -305 36 -422 -9 l-28 -11 0 -615 0 -615
-130 0 -130 0 2 1087 3 1088 125 20 125 20 3 -372 c1 -205 6 -373 11 -373z
m-671 -129 c19 -57 30 -106 26 -110 -5 -5 -220 -95 -479 -201 -259 -106 -480
-198 -493 -204 l-23 -12 23 -11 c13 -5 234 -97 493 -203 259 -106 474 -197
479 -201 5 -4 -6 -54 -24 -114 -30 -95 -36 -106 -54 -101 -12 3 -289 120 -616
259 l-595 254 0 117 0 117 605 258 c333 142 609 258 614 257 6 -1 25 -48 44
-105z m2622 -151 c327 -139 601 -257 608 -263 8 -6 12 -43 12 -117 0 -105 0
-107 -26 -119 -214 -97 -1208 -511 -1214 -504 -12 13 -73 204 -67 210 3 3 228
96 499 208 271 112 493 206 493 210 0 4 -222 98 -493 210 -271 112 -496 205
-499 208 -4 5 51 187 64 210 3 5 10 6 17 4 6 -3 279 -118 606 -257z"/>
</g>
</svg>
